<mxfile host="app.diagrams.net" modified="2024-03-22T14:51:22.401Z" agent="Mozilla/5.0 (Windows NT 10.0; Win64; x64) AppleWebKit/537.36 (KHTML, like Gecko) Chrome/122.0.0.0 Safari/537.36 Edg/122.0.0.0" etag="3eECoPyLril9eld4sEuX" version="24.0.7" type="github">
  <diagram name="Page-1" id="bWEiz-yl2a5lwroInKTy">
    <mxGraphModel dx="5467" dy="425" grid="1" gridSize="10" guides="1" tooltips="1" connect="1" arrows="1" fold="1" page="1" pageScale="1" pageWidth="4681" pageHeight="3300" math="0" shadow="0">
      <root>
        <mxCell id="0" />
        <mxCell id="1" parent="0" />
        <mxCell id="A3eTrqCNgG_vszFpW4A1-3" value="&lt;font style=&quot;font-size: 30px;&quot;&gt;La terrasse&amp;nbsp;&lt;/font&gt;" style="rounded=1;whiteSpace=wrap;html=1;fillColor=#eeeeee;strokeColor=#36393d;" vertex="1" parent="1">
          <mxGeometry x="-100" y="340" width="1180" height="220" as="geometry" />
        </mxCell>
        <mxCell id="A3eTrqCNgG_vszFpW4A1-2" value="" style="rounded=0;whiteSpace=wrap;html=1;" vertex="1" parent="1">
          <mxGeometry x="-100" y="10" width="1180" height="350" as="geometry" />
        </mxCell>
        <mxCell id="A3eTrqCNgG_vszFpW4A1-4" value="" style="rounded=1;whiteSpace=wrap;html=1;rotation=-90;fillColor=#e1d5e7;strokeColor=#9673a6;" vertex="1" parent="1">
          <mxGeometry x="-230.56" y="143.82" width="365.16" height="97.97" as="geometry" />
        </mxCell>
        <mxCell id="A3eTrqCNgG_vszFpW4A1-10" value="&lt;font style=&quot;font-size: 18px;&quot;&gt;Les&amp;nbsp;&lt;/font&gt;&lt;div style=&quot;font-size: 18px;&quot;&gt;&lt;font style=&quot;font-size: 18px;&quot;&gt;escaliers&lt;/font&gt;&lt;/div&gt;" style="html=1;shadow=0;dashed=0;align=center;verticalAlign=middle;shape=mxgraph.arrows2.arrow;dy=0.6;dx=40;direction=south;notch=0;" vertex="1" parent="1">
          <mxGeometry x="-90" y="50" width="90" height="320" as="geometry" />
        </mxCell>
        <mxCell id="A3eTrqCNgG_vszFpW4A1-12" value="" style="rounded=1;whiteSpace=wrap;html=1;fillColor=#dae8fc;strokeColor=#6c8ebf;" vertex="1" parent="1">
          <mxGeometry y="10" width="500" height="350" as="geometry" />
        </mxCell>
        <mxCell id="A3eTrqCNgG_vszFpW4A1-13" value="" style="rounded=1;whiteSpace=wrap;html=1;fillColor=#dae8fc;strokeColor=#6c8ebf;" vertex="1" parent="1">
          <mxGeometry x="500" y="10" width="220" height="350" as="geometry" />
        </mxCell>
        <mxCell id="A3eTrqCNgG_vszFpW4A1-14" value="" style="rounded=1;whiteSpace=wrap;html=1;fillColor=#dae8fc;strokeColor=#6c8ebf;" vertex="1" parent="1">
          <mxGeometry x="830" y="10" width="250" height="350" as="geometry" />
        </mxCell>
        <mxCell id="A3eTrqCNgG_vszFpW4A1-16" value="" style="rounded=0;whiteSpace=wrap;html=1;fillColor=#f8cecc;strokeColor=#b85450;gradientColor=#ea6b66;" vertex="1" parent="1">
          <mxGeometry x="720" y="10" width="110" height="350" as="geometry" />
        </mxCell>
        <mxCell id="A3eTrqCNgG_vszFpW4A1-17" value="" style="rounded=0;whiteSpace=wrap;html=1;fillColor=#f8cecc;strokeColor=#b85450;gradientColor=#ea6b66;" vertex="1" parent="1">
          <mxGeometry x="830" y="10" width="250" height="90" as="geometry" />
        </mxCell>
        <mxCell id="A3eTrqCNgG_vszFpW4A1-18" value="La porte&amp;nbsp;" style="rounded=1;whiteSpace=wrap;html=1;fillColor=#f5f5f5;gradientColor=#b3b3b3;strokeColor=#666666;" vertex="1" parent="1">
          <mxGeometry x="40" y="260" width="90" height="100" as="geometry" />
        </mxCell>
        <mxCell id="A3eTrqCNgG_vszFpW4A1-19" value="La porte" style="rounded=1;whiteSpace=wrap;html=1;fillColor=#f5f5f5;gradientColor=#b3b3b3;strokeColor=#666666;" vertex="1" parent="1">
          <mxGeometry x="470" y="220" width="90" height="40" as="geometry" />
        </mxCell>
        <mxCell id="A3eTrqCNgG_vszFpW4A1-20" value="La porte" style="rounded=1;whiteSpace=wrap;html=1;fillColor=#f5f5f5;gradientColor=#b3b3b3;strokeColor=#666666;" vertex="1" parent="1">
          <mxGeometry x="640" y="290" width="50" height="70" as="geometry" />
        </mxCell>
        <mxCell id="A3eTrqCNgG_vszFpW4A1-21" value="La porte" style="rounded=1;whiteSpace=wrap;html=1;fillColor=#f5f5f5;gradientColor=#b3b3b3;strokeColor=#666666;" vertex="1" parent="1">
          <mxGeometry x="710" y="230" width="90" height="40" as="geometry" />
        </mxCell>
        <mxCell id="A3eTrqCNgG_vszFpW4A1-22" value="La porte" style="rounded=1;whiteSpace=wrap;html=1;fillColor=#f5f5f5;gradientColor=#b3b3b3;strokeColor=#666666;" vertex="1" parent="1">
          <mxGeometry x="890" y="290" width="40" height="70" as="geometry" />
        </mxCell>
        <mxCell id="A3eTrqCNgG_vszFpW4A1-23" value="La porte" style="rounded=1;whiteSpace=wrap;html=1;fillColor=#f5f5f5;gradientColor=#b3b3b3;strokeColor=#666666;" vertex="1" parent="1">
          <mxGeometry x="880" y="30" width="40" height="70" as="geometry" />
        </mxCell>
        <mxCell id="A3eTrqCNgG_vszFpW4A1-24" value="Point d&#39;accÃ¨s&amp;nbsp;" style="ellipse;shape=cloud;whiteSpace=wrap;html=1;" vertex="1" parent="1">
          <mxGeometry x="375" y="260" width="120" height="80" as="geometry" />
        </mxCell>
        <mxCell id="A3eTrqCNgG_vszFpW4A1-25" value="" style="shape=image;html=1;verticalLabelPosition=bottom;verticalAlign=top;imageAspect=0;image=img/clipart/Gear_128x128.png" vertex="1" parent="1">
          <mxGeometry y="90" width="50" height="40" as="geometry" />
        </mxCell>
        <mxCell id="A3eTrqCNgG_vszFpW4A1-26" value="" style="shape=image;html=1;verticalLabelPosition=bottom;verticalAlign=top;imageAspect=0;image=img/clipart/Gear_128x128.png" vertex="1" parent="1">
          <mxGeometry x="500" y="35" width="50" height="40" as="geometry" />
        </mxCell>
        <mxCell id="A3eTrqCNgG_vszFpW4A1-27" value="" style="shape=image;html=1;verticalLabelPosition=bottom;verticalAlign=top;imageAspect=0;image=img/clipart/Gear_128x128.png" vertex="1" parent="1">
          <mxGeometry x="1030" y="270" width="50" height="40" as="geometry" />
        </mxCell>
        <mxCell id="A3eTrqCNgG_vszFpW4A1-28" value="" style="image;html=1;image=img/lib/clip_art/networking/Wireless_Router_128x128.png" vertex="1" parent="1">
          <mxGeometry x="420" y="300" width="50" height="30" as="geometry" />
        </mxCell>
        <mxCell id="A3eTrqCNgG_vszFpW4A1-30" value="&lt;font style=&quot;font-size: 25px;&quot;&gt;Hall&lt;/font&gt;&amp;nbsp;" style="shape=document;whiteSpace=wrap;html=1;boundedLbl=1;" vertex="1" parent="1">
          <mxGeometry x="170" y="130" width="120" height="80" as="geometry" />
        </mxCell>
        <mxCell id="A3eTrqCNgG_vszFpW4A1-33" value="" style="verticalLabelPosition=bottom;html=1;verticalAlign=top;align=center;strokeColor=none;fillColor=#00BEF2;shape=mxgraph.azure.server;" vertex="1" parent="1">
          <mxGeometry x="30" y="15" width="50" height="15" as="geometry" />
        </mxCell>
        <mxCell id="A3eTrqCNgG_vszFpW4A1-35" value="" style="verticalLabelPosition=bottom;html=1;verticalAlign=top;align=center;strokeColor=none;fillColor=#00BEF2;shape=mxgraph.azure.server;" vertex="1" parent="1">
          <mxGeometry x="570" y="40" width="50" height="15" as="geometry" />
        </mxCell>
        <mxCell id="A3eTrqCNgG_vszFpW4A1-36" value="" style="verticalLabelPosition=bottom;html=1;verticalAlign=top;align=center;strokeColor=none;fillColor=#00BEF2;shape=mxgraph.azure.server;" vertex="1" parent="1">
          <mxGeometry x="1020" y="115" width="50" height="15" as="geometry" />
        </mxCell>
        <mxCell id="A3eTrqCNgG_vszFpW4A1-37" value="La clim&amp;nbsp;" style="rounded=1;whiteSpace=wrap;html=1;" vertex="1" parent="1">
          <mxGeometry x="90" y="17.5" width="90" height="22.5" as="geometry" />
        </mxCell>
        <mxCell id="A3eTrqCNgG_vszFpW4A1-38" value="La clim&amp;nbsp;" style="rounded=1;whiteSpace=wrap;html=1;" vertex="1" parent="1">
          <mxGeometry x="630" y="36.25" width="90" height="22.5" as="geometry" />
        </mxCell>
        <mxCell id="A3eTrqCNgG_vszFpW4A1-39" value="La clim&amp;nbsp;" style="rounded=1;whiteSpace=wrap;html=1;" vertex="1" parent="1">
          <mxGeometry x="920" y="111.25" width="90" height="22.5" as="geometry" />
        </mxCell>
        <mxCell id="A3eTrqCNgG_vszFpW4A1-40" value="" style="rounded=1;whiteSpace=wrap;html=1;strokeWidth=2;fillWeight=4;hachureGap=8;hachureAngle=45;fillColor=#1ba1e2;sketch=1;" vertex="1" parent="1">
          <mxGeometry x="950" y="30" width="110" height="40" as="geometry" />
        </mxCell>
        <mxCell id="A3eTrqCNgG_vszFpW4A1-41" value="" style="rounded=1;whiteSpace=wrap;html=1;strokeWidth=2;fillWeight=4;hachureGap=8;hachureAngle=45;fillColor=#1ba1e2;sketch=1;" vertex="1" parent="1">
          <mxGeometry x="725" y="58.75" width="100" height="25" as="geometry" />
        </mxCell>
        <mxCell id="A3eTrqCNgG_vszFpW4A1-42" value="T&lt;span style=&quot;color: rgba(0, 0, 0, 0); font-family: monospace; font-size: 0px; text-align: start; text-wrap: nowrap;&quot;&gt;%3CmxGraphModel%3E%3Croot%3E%3CmxCell%20id%3D%220%22%2F%3E%3CmxCell%20id%3D%221%22%20parent%3D%220%22%2F%3E%3CmxCell%20id%3D%222%22%20value%3D%22La%20clim%26amp%3Bnbsp%3B%22%20style%3D%22rounded%3D1%3BwhiteSpace%3Dwrap%3Bhtml%3D1%3B%22%20vertex%3D%221%22%20parent%3D%221%22%3E%3CmxGeometry%20x%3D%22630%22%20y%3D%2236.25%22%20width%3D%2290%22%20height%3D%2222.5%22%20as%3D%22geometry%22%2F%3E%3C%2FmxCell%3E%3C%2Froot%3E%3C%2FmxGraphModel%3E&lt;/span&gt;oilette&amp;nbsp;" style="rounded=1;whiteSpace=wrap;html=1;" vertex="1" parent="1">
          <mxGeometry x="730" y="107.5" width="90" height="22.5" as="geometry" />
        </mxCell>
        <mxCell id="A3eTrqCNgG_vszFpW4A1-43" value="T&lt;span style=&quot;color: rgba(0, 0, 0, 0); font-family: monospace; font-size: 0px; text-align: start; text-wrap: nowrap;&quot;&gt;%3CmxGraphModel%3E%3Croot%3E%3CmxCell%20id%3D%220%22%2F%3E%3CmxCell%20id%3D%221%22%20parent%3D%220%22%2F%3E%3CmxCell%20id%3D%222%22%20value%3D%22La%20clim%26amp%3Bnbsp%3B%22%20style%3D%22rounded%3D1%3BwhiteSpace%3Dwrap%3Bhtml%3D1%3B%22%20vertex%3D%221%22%20parent%3D%221%22%3E%3CmxGeometry%20x%3D%22630%22%20y%3D%2236.25%22%20width%3D%2290%22%20height%3D%2222.5%22%20as%3D%22geometry%22%2F%3E%3C%2FmxCell%3E%3C%2Froot%3E%3C%2FmxGraphModel%3E&lt;/span&gt;oilette&amp;nbsp;" style="rounded=1;whiteSpace=wrap;html=1;" vertex="1" parent="1">
          <mxGeometry x="950" y="72.5" width="90" height="22.5" as="geometry" />
        </mxCell>
        <mxCell id="A3eTrqCNgG_vszFpW4A1-45" value="Salle&amp;nbsp;" style="rounded=1;whiteSpace=wrap;html=1;" vertex="1" parent="1">
          <mxGeometry x="550" y="170" width="120" height="30" as="geometry" />
        </mxCell>
        <mxCell id="A3eTrqCNgG_vszFpW4A1-46" value="Salle&amp;nbsp;" style="rounded=1;whiteSpace=wrap;html=1;" vertex="1" parent="1">
          <mxGeometry x="900" y="177.8" width="120" height="30" as="geometry" />
        </mxCell>
      </root>
    </mxGraphModel>
  </diagram>
</mxfile>
